<?xml version="1.0" standalone="no"?><!DOCTYPE svg PUBLIC "-//W3C//DTD SVG 1.1//EN" "http://www.w3.org/Graphics/SVG/1.1/DTD/svg11.dtd"><svg t="1553698060208" class="icon" style="" viewBox="0 0 1024 1024" version="1.1" xmlns="http://www.w3.org/2000/svg" p-id="2680" xmlns:xlink="http://www.w3.org/1999/xlink" width="200" height="200"><defs><style type="text/css"></style></defs><path d="M211.06 408.616L75.826 273.38a4.302 4.302 0 0 1 0-6.078L276.4 66.728a4.302 4.302 0 0 1 6.078 0l135.236 135.236 39.506-39.508-135.236-135.236c-23.46-23.46-61.632-23.46-85.092 0L36.318 227.794c-23.46 23.46-23.46 61.632 0 85.092l135.236 135.236 39.506-39.506zM1001.2 706.438l-139.792-139.792-39.506 39.506 139.792 139.794a4.298 4.298 0 0 1 0 6.076L761.12 952.596c-1.676 1.674-4.4 1.674-6.078 0l-139.794-139.792-39.506 39.506 139.792 139.792c23.462 23.46 61.632 23.46 85.096 0L1001.2 791.53c23.46-23.46 23.46-61.634 0-85.092zM299.952 722.39C220.758 643.2 100.66 629.862 7.676 682.356l332.314 332.31c52.494-92.984 39.154-213.084-40.038-292.276z m-190.136-10.834c42.046-17.678 103.126 1.542 150.786 49.198 47.658 47.658 66.876 108.736 49.196 150.786l-199.982-199.984z" fill="#ff9d1e" p-id="2681"></path><path d="M114.2 785.838c-27.364 34.17-25.226 84.18 6.45 115.854 31.674 31.676 81.684 33.816 115.854 6.452L114.2 785.838z m41.364 82.46c-11.018-11.02-11.698-28.482-2.244-40.3l42.544 42.544c-11.82 9.452-29.28 8.776-40.3-2.244z" fill="#ff9d1e" p-id="2682"></path><path d="M908.51 385.822L639.56 116.872c-25.074-25.072-66.1-25.072-91.17 0L127.488 537.774c-25.072 25.07-25.072 66.098 0 91.168L396.44 897.892c25.072 25.074 66.098 25.074 91.17 0l420.9-420.9c25.072-25.072 25.072-66.098 0-91.17z m-445.34 457.496c-9.16 9.16-24.796 8.38-34.92-1.746L183.81 597.13c-10.126-10.124-10.906-25.76-1.748-34.92L577.386 166.886c9.16-9.16 24.796-8.378 34.922 1.746l244.44 244.442c10.126 10.124 10.908 25.758 1.746 34.918L463.17 843.318z" fill="#ff9d1e" p-id="2683"></path></svg>